<svg xmlns="http://www.w3.org/2000/svg" viewBox="0 0 750 499.27"><title>background</title><g id="BACKGROUND"><rect width="750" height="499.27" style="fill:#fff"/></g><g id="OBJECTS"><path d="M0,228.83s38-1.32,39.67,31.91c0,0,13.66-2.89,16.33,12.34,0,0,49.67-9,56.33,39.93,0,0,45.67-12.23,62.67,23.86,0,0,16.19-5.84,20.93,9.63,0,0,49.57-14,67.32,23.18,0,0,42.09-9.48,65.25,23.41H0Z" transform="translate(0 -0.73)" style="fill:#e6f0fc"/><path d="M750,228.83s-38-1.32-39.67,31.91c0,0-13.66-2.89-16.33,12.34,0,0-49.67-9-56.33,39.93,0,0-45.67-12.23-62.67,23.86,0,0-16.19-5.84-20.93,9.63,0,0-49.57-14-67.32,23.18,0,0-42.09-9.48-65.25,23.41H750Z" transform="translate(0 -0.73)" style="fill:#e6f0fc"/><path d="M301.55,393.06h146.9a172.84,172.84,0,1,0-146.9,0Z" transform="translate(0 -0.73)" style="fill:#d2e1f9"/><polygon points="140.75 392.48 119.37 392.48 130.06 331.96 140.75 271.45 151.44 331.96 162.14 392.48 140.75 392.48" style="fill:#3bb28a"/><polygon points="56.56 392.48 39.7 392.48 48.13 344.79 56.56 297.1 64.98 344.79 73.41 392.48 56.56 392.48" style="fill:#3bb28a"/><polygon points="99.68 392.33 65.74 392.33 82.71 296.3 99.68 200.27 116.65 296.3 133.61 392.33 99.68 392.33" style="fill:#50c39f"/><rect x="292.68" y="150.85" width="73.81" height="3.13" rx="1.56" style="fill:#fff"/><rect x="272.09" y="150.85" width="14.07" height="3.13" rx="1.56" style="fill:#fff"/><rect x="285.18" y="184.87" width="73.81" height="3.13" rx="1.56" style="fill:#fff"/><rect x="250.25" y="184.87" width="30.14" height="3.13" rx="1.56" style="fill:#fff"/><rect x="191.51" y="224.48" width="73.81" height="3.13" rx="1.56" style="fill:#fff"/><rect x="168.15" y="224.48" width="30.14" height="3.13" rx="1.56" style="fill:#d2e1f9"/><rect x="139.51" y="212.24" width="73.81" height="3.13" rx="1.56" style="fill:#d2e1f9"/><rect x="120.12" y="212.24" width="15.55" height="3.13" rx="1.56" style="fill:#d2e1f9"/><rect x="328.09" y="158.12" width="44.38" height="3.13" rx="1.56" style="fill:#fff"/><rect x="314.23" y="158.12" width="10.1" height="3.13" rx="1.56" style="fill:#fff"/><rect x="195.93" y="284.02" width="44.38" height="3.13" rx="1.56" style="fill:#d2e1f9"/><rect x="182.08" y="284.02" width="10.1" height="3.13" rx="1.56" style="fill:#d2e1f9"/><rect x="162.66" y="173.67" width="73.81" height="3.13" rx="1.56" style="fill:#d2e1f9"/><rect x="142.08" y="173.67" width="14.07" height="3.13" rx="1.56" style="fill:#d2e1f9"/><rect x="198.07" y="166.4" width="44.38" height="3.13" rx="1.56" style="fill:#d2e1f9"/><rect x="184.22" y="166.4" width="10.1" height="3.13" rx="1.56" style="fill:#d2e1f9"/><rect x="177.77" y="309.49" width="86.76" height="3.13" rx="1.56" style="fill:#d2e1f9"/><rect x="157.19" y="309.49" width="14.07" height="3.13" rx="1.56" style="fill:#d2e1f9"/><rect x="187.18" y="302.22" width="57.32" height="3.13" rx="1.56" style="fill:#d2e1f9"/><rect x="173.33" y="302.22" width="10.1" height="3.13" rx="1.56" style="fill:#d2e1f9"/><rect x="380.18" y="259.63" width="44.38" height="3.13" rx="1.56" style="fill:#fff"/><rect x="366.32" y="259.63" width="10.1" height="3.13" rx="1.56" style="fill:#fff"/><rect x="444.89" y="307.99" width="44.38" height="3.13" rx="1.56" style="fill:#fff"/><rect x="431.03" y="307.99" width="10.1" height="3.13" rx="1.56" style="fill:#fff"/><rect x="375.07" y="392.19" width="64.44" height="3.13" rx="1.56" style="fill:#fff"/><rect x="354.95" y="392.19" width="14.67" height="3.13" rx="1.56" style="fill:#fff"/><rect x="396.38" y="317.79" width="69.33" height="3.13" rx="1.56" style="fill:#fff"/><rect x="387.37" y="317.79" width="6.79" height="3.13" rx="1.56" style="fill:#fff"/><rect x="176.5" y="418.72" width="397" height="13.74" rx="6.87" style="fill:#d2e1f9"/><rect x="358.99" y="446.19" width="153.55" height="13.74" rx="6.87" style="fill:#d2e1f9"/><rect x="268.74" y="446.19" width="53.09" height="13.74" rx="6.87" style="fill:#d2e1f9"/><path d="M457.27,440.05a6.87,6.87,0,0,1,6.87-6.86H400.42a6.87,6.87,0,1,1,0,13.73h63.72A6.87,6.87,0,0,1,457.27,440.05Z" transform="translate(0 -0.73)" style="fill:#d2e1f9"/><rect x="589.5" y="418.72" width="77.76" height="13.74" rx="6.87" style="fill:#d2e1f9"/><rect x="108.63" y="418.72" width="49.96" height="13.74" rx="6.87" style="fill:#d2e1f9"/><path d="M0,392.36H183.13a6.87,6.87,0,0,1,6.87,6.87v0a6.87,6.87,0,0,1-6.87,6.87H0a0,0,0,0,1,0,0V392.36A0,0,0,0,1,0,392.36Z" style="fill:#d2e1f9"/><polygon points="591.03 392.48 608.59 392.48 599.81 336.73 591.03 280.99 582.25 336.73 573.48 392.48 591.03 392.48" style="fill:#3bb28a"/><polygon points="650.5 392.48 664.45 392.48 657.47 348.17 650.5 303.86 643.52 348.17 636.54 392.48 650.5 392.48" style="fill:#3bb28a"/><polygon points="618.94 392.34 640.99 392.34 629.97 322.33 618.94 252.32 607.92 322.33 596.89 392.34 618.94 392.34" style="fill:#50c39f"/><polygon points="686.02 392.34 716.26 392.34 701.14 296.31 686.02 200.27 670.89 296.31 655.77 392.34 686.02 392.34" style="fill:#50c39f"/><path d="M545.61,393.09H743.13A6.87,6.87,0,0,1,750,400v0a6.87,6.87,0,0,1-6.87,6.87H545.61a0,0,0,0,1,0,0V393.09A0,0,0,0,1,545.61,393.09Z" transform="translate(1295.61 799.18) rotate(-180)" style="fill:#d2e1f9"/><path d="M574,187.09l-7.88,1.07s-15.12-7.24-17.25-7.24S538,183.26,538,183.26s-16.18-9.8-22.57-8.52-21.52,8.73-21.52,8.73-8.09-2.13-13.2-1.24-26.84,11.38-26.84,11.38-7.35-2.79-9.27-2.81-8.27,4-8.27,4-8.42-2.24-11.3-1.6-16.32,3.56-16.32,3.56H602.33Z" transform="translate(0 -0.73)" style="fill:#fff"/><path d="M294.84,130.29l-6.8.92S275,125,273.16,125s-9.37,2-9.37,2-14-8.45-19.48-7.35-18.56,7.53-18.56,7.53-7-1.83-11.4-1.07-23.15,9.82-23.15,9.82-6.34-2.41-8-2.42-7.14,3.48-7.14,3.48-7.26-1.93-9.75-1.38-14.08,3.07-14.08,3.07h167Z" transform="translate(0 -0.73)" style="fill:#d2e1f9"/><path d="M502.16,233.59l6,.92s11.47-6.25,13.09-6.25,8.24,2,8.24,2,12.27-8.46,17.12-7.35,16.31,7.53,16.31,7.53,6.14-1.84,10-1.07,20.35,9.81,20.35,9.81,5.57-2.4,7-2.42,6.27,3.49,6.27,3.49,6.39-1.93,8.57-1.38L627.5,242H480.68Z" transform="translate(0 -0.73)" style="fill:#d2e1f9"/><circle cx="419.26" cy="112.7" r="24.71" style="fill:#ffcb58"/><circle cx="419.26" cy="112.7" r="21.41" style="fill:#ffb958"/><path d="M413.05,106.19l-8.57.85s-8.73-6.83-10-6.83-7.24,1.8-7.24,1.8-8.87-6.24-12.68-5.48-15,8-15,8-7.14-3.51-10.19-3-11.44,6.17-11.44,6.17-4.38-1.66-5.52-1.67-4.92,2.4-4.92,2.4-5-1.33-6.73-1L311,109.67H426.32Z" transform="translate(0 -0.73)" style="fill:#fff"/><path d="M424.12,124.9l3.21.43s6.16-3,7-3a40.47,40.47,0,0,1,4.95,1.24s6.07-4.28,8.67-3.76,10.28,5.51,10.28,5.51,4.89-2.4,7-2,7.82,4.22,7.82,4.22a23.65,23.65,0,0,1,3.78-1.14c.78,0,3.37,1.64,3.37,1.64s3.43-.91,4.6-.65l6.65,1.45H412.58Z" transform="translate(0 -0.73)" style="fill:#fff"/><path d="M491.28,153.37l4.17.56s8-3.83,9.12-3.83a52.59,52.59,0,0,1,6.43,1.61s7.87-5.55,11.25-4.87S535.59,154,535.59,154s6.35-3.12,9-2.65,10.15,5.47,10.15,5.47a30.35,30.35,0,0,1,4.9-1.48c1,0,4.37,2.13,4.37,2.13s4.46-1.18,6-.84l8.63,1.88H476.31Z" transform="translate(0 -0.73)" style="fill:#d2e1f9"/></g></svg>