<svg xmlns="http://www.w3.org/2000/svg" viewBox="0 0 319.71 319.68"><title>bycicle</title><g id="Character_1" data-name="Character 1"><path d="M403,249.25s-2.27,52.63-2,62.16,10.52,76.44,10.52,76.44l17.56.33s1.25-40.62,2.09-52.27-.22-22.23,0-26.09,8.73-42.45,10.38-49.24,2.1-9.07,3.92-12.7,5.58-14.13,5.9-18c1.2-14.76-5-23.93-5-23.93l-34.45,25.11Z" transform="translate(-235.78 -119.03)" style="fill:#ffbf9d"/><polygon points="175.28 270.83 172.68 248.98 194.88 250.08 193.84 271.07 187.1 278.03 177.19 276.21 175.28 270.83" style="fill:#263238"/><path d="M391.5,413.83s7.46,1.29,13.62.06,15.08-4.48,18.37-5.63,13.25-1.09,13.55-4.61-7.43-15.47-7.43-15.47-1.16,3.93-4.6,4.19-10.27-.77-10.27-.77-3.39-4.14-5.38-4.09-.69,5.56-.69,5.56-4,7.25-7.16,9.07-3.13,2.85-7,3.39a10.38,10.38,0,0,0-5.5,2.15s-1.4,3.35-.37,4.37A10.44,10.44,0,0,0,391.5,413.83Z" transform="translate(-235.78 -119.03)" style="fill:#455a64"/><path d="M388.62,412a7.85,7.85,0,0,0,2.87,1.9s7.46,1.29,13.62.05,15.09-4.47,18.38-5.62,13.25-1.1,13.55-4.62a5.86,5.86,0,0,0-.49-2.88s-9.64,3.83-14.46,4.3-14.67,5-20.11,5.59a67.67,67.67,0,0,1-11.7,0l-1.89-.76C388.27,410.73,388.06,411.31,388.62,412Z" transform="translate(-235.78 -119.03)" style="fill:#e0e0e0"/><path d="M402.62,401.06a14.46,14.46,0,0,0,.87,1.7,12.81,12.81,0,0,0,1.34,1.37,3.24,3.24,0,0,1-2.21-3.07Z" transform="translate(-235.78 -119.03)" style="fill:#fff"/><path d="M405.43,397.92a11.47,11.47,0,0,0,1.19,2,10.92,10.92,0,0,0,1.76,1.46,3.28,3.28,0,0,1-2-1.25A3.32,3.32,0,0,1,405.43,397.92Z" transform="translate(-235.78 -119.03)" style="fill:#fff"/><path d="M407.36,395a19.09,19.09,0,0,1,1.41,1.29c.79.68,1.53,1.11,1.49,1.19a4.95,4.95,0,0,1-2.9-2.48Z" transform="translate(-235.78 -119.03)" style="fill:#fff"/><path d="M427,400.07a5.15,5.15,0,0,1-1.26.4c-.79.2-1.89.44-3.11.63s-2.34.31-3.16.36a4.81,4.81,0,0,1-1.31,0c0-.09,2-.3,4.42-.69S427,400,427,400.07Z" transform="translate(-235.78 -119.03)" style="fill:#fff"/><path d="M402.39,255.72l-.76,27.58,34.67,3.59,6.88-33.68s5.48-9.34,7.6-16.44c1.5-5,4.41-18.06-4.49-31.08Z" transform="translate(-235.78 -119.03)" style="fill:#263238"/><path d="M302,269s-12.15-4.94-13-8.08-2.43-5.73-4.72-3.44-3.38,5.81.19,10.1l12.05,7.64,5.49-4.5Z" transform="translate(-235.78 -119.03)" style="fill:#263238"/><path d="M279.84,288.27a11.58,11.58,0,0,0,4-4.11c1-2.15.72-4.38.39-6.65-.44-3-.61-7.91,3-9.18a2,2,0,0,0,1.35-2.38,2,2,0,0,0-2.38-1.35c-4.12,1.46-6,5.58-6.05,9.74,0,2.2.62,4.34.6,6.52,0,1.9-1.39,3-2.83,4.07a2,2,0,0,0-.69,2.64,1.94,1.94,0,0,0,2.64.7Z" transform="translate(-235.78 -119.03)" style="fill:#263238"/><path d="M306.63,434.45,305,406.15l3.31,28.16Zm-29.48-5.23-1.34-.64,13.05-25.29Zm59.65-5.82-14.39-20.15-18-24.3.43-.31,17.66,24.73h0Zm.35-.25L322.5,403.37l-1.58-2.21Zm-83.52-13,20.7-15.92L253.08,409.4l21.27-15.19,22.88-17.6.61.83-22.4,16ZM305,407l-3.16-27.31L305,406.15Zm-16.6-2.86,11.37-25-10.93,24.19Zm67.86-3.68-49.2-24.6,49.22,24.55ZM241.84,382.63l-.14-.83,27.21-4L296,373.07l-25.36,4.47,25.48-3.74-25.48,3.74ZM363,371.71H308l55,0Zm-66.82-2.53L269.94,361l-26.55-7.08,25.49,6.75-25.17-7.86,25.19,7.87L296.56,368Zm11.55,0-.28-.77,26-8.95,25.73-9.6-24.09,9,24.33-8.36-24.36,8.38Zm-9.88-3.34-19.45-19.45-20.56-18.25,20,17.68L259,326.92l18.87,18.88,21.2,18.75Zm7.95-.28-.5-.46,19.12-19.91L343,325l-17.12,18.68,17.55-18.28-17.55,18.29,17.55-18.29L325.8,343.74Zm18.62-20.37-.08.07Zm-21.08,18.71-.23-.06,6.77-27.94L316,310.33l-4.59,19.52,4.73-19.49L311.33,330l4.76-19.62-4.92,20.32Zm6.54-28-.29,1.22Zm-9.16,28-8.2-27.07-7.92-25.51L291.09,332l-6.3-20.79L291.11,332l-6.31-20.85,6.46,21.34L301,363.75Zm-8.2-27.06.23.74Z" transform="translate(-235.78 -119.03)" style="fill:#e0e0e0"/><path d="M302,434.66a62.13,62.13,0,1,1,62.12-62.13A62.2,62.2,0,0,1,302,434.66Zm0-121.25a59.13,59.13,0,1,0,59.12,59.12A59.19,59.19,0,0,0,302,313.41Z" transform="translate(-235.78 -119.03)" style="fill:#e0e0e0"/><path d="M302,438.72a66.19,66.19,0,1,1,66.18-66.19A66.26,66.26,0,0,1,302,438.72Zm0-128.37a62.19,62.19,0,1,0,62.18,62.18A62.25,62.25,0,0,0,302,310.35Z" transform="translate(-235.78 -119.03)" style="fill:#263238"/><path d="M361.18,372.73s0-.33-.05-1,0-1.58-.14-2.81a59.19,59.19,0,0,0-23.28-43.19,59,59,0,0,0-24.85-11,59,59,0,1,0,0,115.94,59,59,0,0,0,24.85-11A59.09,59.09,0,0,0,361,376.5c.12-1.23.1-2.18.14-2.81s.05-1,.05-1,0,1.3-.08,3.78a57.69,57.69,0,0,1-1.61,10.72,59.09,59.09,0,0,1-6.5,15.84A59.88,59.88,0,0,1,337.94,420a59.08,59.08,0,0,1-25,11.15,60.06,60.06,0,0,1-31.25-2.5,59.42,59.42,0,0,1,15.92-115.18,58.87,58.87,0,0,1,15.33.86,59.23,59.23,0,0,1,25,11.15A59.9,59.9,0,0,1,353,342.39a59.09,59.09,0,0,1,6.5,15.84A57.57,57.57,0,0,1,361.1,369C361.22,371.43,361.18,372.73,361.18,372.73Z" transform="translate(-235.78 -119.03)" style="fill:#263238"/><polygon points="196.42 173.15 204.46 137.65 210.74 137.65 203.09 175.11 196.42 173.15" style="fill:#e0e0e0"/><rect x="320.65" y="266.37" width="7.15" height="20.33" transform="translate(-337.68 154.39) rotate(-40.04)" style="fill:#e0e0e0"/><path d="M494,433.58l-1.66-28.31,3.31,28.16Zm-29.48-5.24-1.34-.64,12.61-24.44,11.36-25L476.2,402.41l12.17-23.59L476.2,402.41Zm59.65-5.82-14.39-20.15-18-24.3.42-.31,17.66,24.73h0Zm.34-.25-14.64-19.78-1.58-2.2Zm-83.51-13,20.7-15.92-21.25,15.18,21.27-15.2,22.87-17.59.61.82-22.4,16Zm51.39-3.14-3.17-27.32,3.12,26.46Zm51.25-6.55L494.42,375l49.21,24.56ZM429.18,381.75l-.1-.58,27.17-4.25,27.09-4.73-24.64,4.35,24.72-3.86-24.72,3.86Zm121.18-10.92h-55l55-.05Zm-66.82-2.53-26.26-8.2L430.72,353l25.5,6.75L431,351.9l25.19,7.87,27.66,7.32Zm11.54,0-.27-.77,26.05-8.95L546.58,349l-24.08,9,24.32-8.36L522.46,358Zm-9.88-3.34-19.45-19.45L445.2,327.23l20,17.68L446.31,326l18.88,18.88,21.2,18.75Zm7.95-.27-.49-.47,19.11-19.91,18.55-20.17L513.19,342.8l17.56-18.29L513.19,342.8l17.56-18.29-17.61,18.35Zm18.62-20.38-.07.07ZM490.69,363l-.23-.06L497.24,335l6.05-25.53L498.7,329l4.72-19.49-4.75,19.61,4.75-19.61-4.92,20.31Zm6.55-28-.3,1.23Zm-9.16,28-9.65-31.85,0,.06-6.32-20.84,6.47,21.33,9.76,31.22Zm-8.2-27.06L472,310.37Z" transform="translate(-235.78 -119.03)" style="fill:#e0e0e0"/><path d="M489.3,433.78a62.13,62.13,0,1,1,62.13-62.12A62.19,62.19,0,0,1,489.3,433.78Zm0-121.25a59.13,59.13,0,1,0,59.13,59.13A59.19,59.19,0,0,0,489.3,312.53Z" transform="translate(-235.78 -119.03)" style="fill:#e0e0e0"/><path d="M489.3,437.84a66.19,66.19,0,1,1,66.19-66.18A66.26,66.26,0,0,1,489.3,437.84Zm0-128.37a62.19,62.19,0,1,0,62.19,62.19A62.25,62.25,0,0,0,489.3,309.47Z" transform="translate(-235.78 -119.03)" style="fill:#263238"/><path d="M548.52,371.85s0-.32-.06-1,0-1.58-.13-2.81a60.74,60.74,0,0,0-1.7-10.68,59.25,59.25,0,0,0-21.58-32.51,58.13,58.13,0,0,0-11.28-6.73,57.46,57.46,0,0,0-13.58-4.28,59,59,0,1,0,0,115.94,59,59,0,0,0,24.85-11,59.25,59.25,0,0,0,21.58-32.51,60.6,60.6,0,0,0,1.7-10.68c.11-1.23.09-2.17.13-2.81s.06-1,.06-1,0,1.3-.08,3.78a58.44,58.44,0,0,1-1.61,10.72,59.09,59.09,0,0,1-6.5,15.84,60,60,0,0,1-15.05,16.92,59.23,59.23,0,0,1-25,11.15,59.43,59.43,0,1,1,0-116.82,59.2,59.2,0,0,1,25,11.15,59.83,59.83,0,0,1,15,16.92,59.16,59.16,0,0,1,6.51,15.84,58.56,58.56,0,0,1,1.61,10.72C548.56,370.55,548.52,371.85,548.52,371.85Z" transform="translate(-235.78 -119.03)" style="fill:#263238"/><path d="M297.54,372.39,328.72,290l-6.23-8.2,7.16-5.27,7.32,8.71,97.52,2.91,5.94.74s34.38,55.9,40.43,63.5c6.48,8.12,14,18.21,14,18.21l-6.26,4.1s-17.09-20.89-25.62-35-24.68-40.44-24.68-40.44l-22.14,87.09L408.34,385l20.38-88.81-86.82-2.06,69.62,78.14L408.34,385l-73.22-84.65-29.78,74.25Z" transform="translate(-235.78 -119.03)" style="fill:#ff725e"/><polygon points="179.45 259.45 252.28 250.08 253.52 255.56 179.45 267.33 179.45 259.45" style="fill:#ff725e"/><path d="M421.61,256a2.23,2.23,0,0,1-1.27-4,9.66,9.66,0,0,1,5.67-1.8c7.19-.23,47.21,0,47.21,0s1.46,2.09-1.34,4.41-10.49,4.63-14.64,4.63-15.86-1.93-22.21-2.55C431.13,256.3,425.42,256.11,421.61,256Z" transform="translate(-235.78 -119.03)" style="fill:#455a64"/><path d="M308.5,372.53a6.57,6.57,0,1,1-6.57-6.56A6.57,6.57,0,0,1,308.5,372.53Z" transform="translate(-235.78 -119.03)" style="fill:#e0e0e0"/><path d="M308.5,372.53c-.06,0,0-.58-.31-1.57a6.51,6.51,0,0,0-2.4-3.49,6.38,6.38,0,0,0-6-.87,6.21,6.21,0,0,0-2.92,2.21,6.3,6.3,0,0,0,0,7.45,6.35,6.35,0,0,0,8.93,1.34,6.55,6.55,0,0,0,2.4-3.49c.27-1,.25-1.58.31-1.58a1.18,1.18,0,0,1,0,.42,4.77,4.77,0,0,1-.14,1.21A6.48,6.48,0,0,1,306,377.9a6.76,6.76,0,0,1-9.59-1.33,6.81,6.81,0,0,1,3.18-10.44,6.74,6.74,0,0,1,6.41,1,6.48,6.48,0,0,1,2.37,3.74,4.77,4.77,0,0,1,.14,1.21Q308.53,372.53,308.5,372.53Z" transform="translate(-235.78 -119.03)" style="fill:#263238"/><path d="M311.67,294.75a16.54,16.54,0,0,1-11.1-5.86,11.31,11.31,0,0,1-1.85-11.15c1.63-3.9,5.28-5.52,9.29-5.8,5.14-.35,10.4,0,15.54.16q9.18.27,18.35.74c3.31.17,3.3-5,0-5.16q-9.43-.48-18.86-.75-4.59-.12-9.18-.19a50.88,50.88,0,0,0-8.46.34,14.52,14.52,0,0,0-11.65,9.29,16.13,16.13,0,0,0,2.15,14.82c3.7,5.24,9.51,8,15.77,8.71a2.58,2.58,0,0,0,2.57-2.57,2.63,2.63,0,0,0-2.57-2.58Z" transform="translate(-235.78 -119.03)" style="fill:#e0e0e0"/><polygon points="196.42 170.33 197.74 164.5 205.87 164.5 204.64 171.18 197.13 172.86 196.42 170.33" style="fill:#ff725e"/><path d="M352.4,184s-11.71,1.33-13.07,10.41-3.91,38.8-4.73,41-24.81,42.2-24.81,42.2l7.85,11.33s29.5-36.62,35.77-49.17,12.55-42,13.36-47.29S361,181.68,352.4,184Z" transform="translate(-235.78 -119.03)" style="fill:#ffbf9d"/><path d="M305.29,281.15s-5.42-1-6-.86a68.24,68.24,0,0,0-7.6,5.8c-.95,1.05-1.9,5.33,0,6.94l1.16.86s.17,3.22,2.45,3.75,2.28,0,2.28,0-.76,2.81,1.81,2.81H302s1.61,2.75,3.32,1.9,8.25-5.54,9-7.44,1.39-3.52,1.39-3.52l4.19-3.37-10.74-11Z" transform="translate(-235.78 -119.03)" style="fill:#263238"/><circle cx="253.49" cy="252.62" r="6.57" style="fill:#e0e0e0"/><path d="M495.84,371.66c-.06,0,0-.59-.31-1.58a6.57,6.57,0,0,0-2.4-3.49,6.39,6.39,0,0,0-6-.87,6.29,6.29,0,0,0-2.93,2.21,6.3,6.3,0,0,0,0,7.45,6.29,6.29,0,0,0,2.93,2.21,6.39,6.39,0,0,0,6-.87,6.51,6.51,0,0,0,2.4-3.49c.27-1,.25-1.58.31-1.57a2.24,2.24,0,0,1,0,.42,5.21,5.21,0,0,1-.14,1.2,6.5,6.5,0,0,1-2.37,3.74,6.76,6.76,0,0,1-9.59-1.33,6.79,6.79,0,0,1,0-8.07,6.76,6.76,0,0,1,9.59-1.33,6.5,6.5,0,0,1,2.37,3.74,5.21,5.21,0,0,1,.14,1.2A2.43,2.43,0,0,1,495.84,371.66Z" transform="translate(-235.78 -119.03)" style="fill:#263238"/><rect x="401.67" y="416.08" width="19.62" height="7.02" transform="translate(-363.06 65.79) rotate(-22.01)" style="fill:#263238"/><path d="M403.69,426.55v0L401,420h0l18.21-7.36v0l2.64,6.53h0ZM401.11,420l2.61,6.46,18.14-7.34-2.62-6.46Z" transform="translate(-235.78 -119.03)" style="fill:#455a64"/><path d="M411.25,419.57h0A3.34,3.34,0,0,1,408.2,416l2.3-26.73a3.34,3.34,0,0,1,3.62-3h0a3.34,3.34,0,0,1,3.05,3.62l-2.3,26.72A3.35,3.35,0,0,1,411.25,419.57Z" transform="translate(-235.78 -119.03)" style="fill:#263238"/><path d="M411.25,419.57s.26,0,.74-.08a3.29,3.29,0,0,0,1.85-1,3.48,3.48,0,0,0,.76-1.29,9,9,0,0,0,.21-1.83c.11-1.35.23-2.87.36-4.54.27-3.39.6-7.39,1-11.83q.28-3.34.58-7c.06-.61.11-1.22.16-1.84a3.58,3.58,0,0,0-.14-1.73,3.07,3.07,0,0,0-5.57-.48,3.64,3.64,0,0,0-.43,1.68c-.05.62-.11,1.23-.16,1.83-.21,2.42-.42,4.76-.62,7-.4,4.43-.77,8.43-1.07,11.82-.16,1.67-.31,3.19-.44,4.53a10,10,0,0,0-.09,1.84,3.34,3.34,0,0,0,.52,1.41,3.44,3.44,0,0,0,1.65,1.28c.46.16.73.17.73.2a2.31,2.31,0,0,1-.76-.1,3.38,3.38,0,0,1-1.79-1.26,3.57,3.57,0,0,1-.61-1.5,9.3,9.3,0,0,1,.05-1.89c.11-1.35.23-2.87.36-4.55.27-3.38.6-7.39,1-11.83.19-2.22.38-4.56.59-7l.15-1.83a4.12,4.12,0,0,1,.5-1.9,3.61,3.61,0,0,1,6.54.56,4.27,4.27,0,0,1,.16,2c0,.62-.11,1.23-.16,1.83-.22,2.42-.42,4.75-.62,7-.4,4.44-.77,8.44-1.08,11.82-.15,1.67-.3,3.19-.43,4.54a9.06,9.06,0,0,1-.27,1.87,3.41,3.41,0,0,1-.85,1.37,3.32,3.32,0,0,1-2,.94A2.08,2.08,0,0,1,411.25,419.57Z" transform="translate(-235.78 -119.03)" style="fill:#455a64"/><circle cx="412.36" cy="385.1" r="17.52" transform="translate(-292.41 579.74) rotate(-76.82)" style="fill:#e0e0e0"/><rect x="402.79" y="352.15" width="19.62" height="7.02" transform="translate(705.77 366.74) rotate(153.06)" style="fill:#263238"/><path d="M405.43,363.26v0L402.23,357h0l17.51-8.9v0l3.19,6.28h0ZM402.3,357l3.15,6.21,17.44-8.86-3.15-6.21Z" transform="translate(-235.78 -119.03)" style="fill:#455a64"/><circle cx="176.81" cy="265.97" r="10.01" style="fill:#263238"/><path d="M412.83,355.66h0a3.34,3.34,0,0,1,3.35,3.34v26.83a3.35,3.35,0,0,1-3.35,3.34h0a3.35,3.35,0,0,1-3.35-3.34V359A3.34,3.34,0,0,1,412.83,355.66Z" transform="translate(-235.78 -119.03)" style="fill:#263238"/><path d="M412.83,355.66s-.26,0-.74.14a3.3,3.3,0,0,0-1.75,1.13,3.26,3.26,0,0,0-.65,1.36,9.75,9.75,0,0,0-.06,1.83c0,1.35,0,2.88,0,4.56,0,3.4,0,7.41.06,11.87,0,2.23,0,4.58,0,7v1.83a3.63,3.63,0,0,0,.28,1.72,3.08,3.08,0,0,0,5.6,0,3.61,3.61,0,0,0,.28-1.71v-1.84c0-2.43,0-4.78,0-7,0-4.46,0-8.47.06-11.87,0-1.68,0-3.21,0-4.56a9.75,9.75,0,0,0-.06-1.83,3.26,3.26,0,0,0-.65-1.36,3.3,3.3,0,0,0-1.75-1.13c-.48-.12-.74-.12-.74-.14a2.11,2.11,0,0,1,.76,0,3.35,3.35,0,0,1,1.89,1.1,3.57,3.57,0,0,1,.74,1.44,9.66,9.66,0,0,1,.11,1.89c0,1.35,0,2.88,0,4.56,0,3.4,0,7.41.05,11.87,0,2.23,0,4.58,0,7v1.84a4.13,4.13,0,0,1-.33,1.93,3.6,3.6,0,0,1-6.56,0,4.15,4.15,0,0,1-.33-1.94v-1.83c0-2.43,0-4.78,0-7,0-4.46,0-8.47.05-11.87,0-1.68,0-3.21,0-4.56a9.66,9.66,0,0,1,.11-1.89,3.47,3.47,0,0,1,.74-1.43,3.32,3.32,0,0,1,1.89-1.11A2.09,2.09,0,0,1,412.83,355.66Z" transform="translate(-235.78 -119.03)" style="fill:#455a64"/><path d="M324.14,124.51s3.88.36,4.32,1.53c.31.84-16,7.73-16,7.73L312,130.4l4.66-4.27Z" transform="translate(-235.78 -119.03)" style="fill:#ff725e"/><g style="opacity:0.30000000000000004"><path d="M324.14,124.51s3.88.36,4.32,1.53c.31.84-16,7.73-16,7.73L312,130.4l4.66-4.27Z" transform="translate(-235.78 -119.03)"/></g><path d="M340.81,153.45a73.88,73.88,0,0,0-6.17-11.2,25.84,25.84,0,0,0-9.43-8.48c-.58-.29-4.78-1.92-5.2-1.43s3.17,2.29,3.27,2.74a21.93,21.93,0,0,0,7,11,57.88,57.88,0,0,0,10.51,7.37" transform="translate(-235.78 -119.03)" style="fill:#263238"/><path d="M303.36,164.8a19.17,19.17,0,0,1,.36-26l.68-.71c7.81-7.33,18.4-4.8,25.51,3.21l24,26.11,2.88,19.62-11,6.19c-2.1-2.17-9.82-10-9.84-10s-8.23,6.36-15.77-.62C316.5,179.26,309.56,171.71,303.36,164.8Z" transform="translate(-235.78 -119.03)" style="fill:#ffbf9d"/><path d="M335.92,183.25a24.79,24.79,0,0,0,6.34-12.43s3.39,7.65-4.34,14.46Z" transform="translate(-235.78 -119.03)" style="fill:#ff9a6c"/><path d="M312.48,168.75a1.47,1.47,0,0,0,2,0,1.41,1.41,0,0,0,.08-2,1.47,1.47,0,0,0-2.05,0A1.41,1.41,0,0,0,312.48,168.75Z" transform="translate(-235.78 -119.03)" style="fill:#263238"/><path d="M308.16,166.34c.26,0,.43-1.38,1.52-2.52s2.46-1.44,2.44-1.7-.39-.22-1-.11a4,4,0,0,0-2.12,1.2,3.89,3.89,0,0,0-1,2.16C307.9,166,308,166.34,308.16,166.34Z" transform="translate(-235.78 -119.03)" style="fill:#263238"/><path d="M322.52,159a1.47,1.47,0,0,0,2.05,0,1.4,1.4,0,0,0,.08-2,1.46,1.46,0,0,0-2,0A1.41,1.41,0,0,0,322.52,159Z" transform="translate(-235.78 -119.03)" style="fill:#263238"/><path d="M319,155.78c.27,0,.44-1.37,1.53-2.51s2.46-1.44,2.43-1.7-.38-.22-1-.11a4.05,4.05,0,0,0-2.13,1.2,3.78,3.78,0,0,0-1,2.16C318.76,155.43,318.9,155.79,319,155.78Z" transform="translate(-235.78 -119.03)" style="fill:#263238"/><path d="M324,167.81a10.73,10.73,0,0,0-2.1,1.55c-.31.26-.63.48-.87.34s-.48-.55-.68-1l-1.41-3c-2-4.21-3.82-7.56-4-7.47s1.34,3.56,3.38,7.77l1.45,3a2.37,2.37,0,0,0,1,1.25,1,1,0,0,0,.88-.08,2.26,2.26,0,0,0,.54-.43A9.7,9.7,0,0,0,324,167.81Z" transform="translate(-235.78 -119.03)" style="fill:#263238"/><path d="M316.61,153.3c.43.13,1.08-1.13,2.21-2.34s2.32-2,2.13-2.41c-.09-.18-.56-.23-1.21,0a4.89,4.89,0,0,0-2.13,1.39,4.71,4.71,0,0,0-1.17,2.22C316.31,152.78,316.41,153.23,316.61,153.3Z" transform="translate(-235.78 -119.03)" style="fill:#263238"/><path d="M303.82,162.25c.49,0,1.12-1.17,2.19-2.29s2.17-1.87,2.11-2.35c0-.22-.44-.32-1.08-.15a5.31,5.31,0,0,0-3.47,3.73C303.46,161.84,303.59,162.23,303.82,162.25Z" transform="translate(-235.78 -119.03)" style="fill:#263238"/><path d="M334.86,147.18c.06-.18,3.34-6.56,8.28-1.56s-1.09,8.93-1.24,8.79S334.86,147.18,334.86,147.18Z" transform="translate(-235.78 -119.03)" style="fill:#ffbf9d"/><path d="M341.55,151s.15,0,.36-.11a1.21,1.21,0,0,0,.67-.63,3,3,0,0,0-.92-2.91,4,4,0,0,0-1.47-1,1.42,1.42,0,0,0-1.32,0,.62.62,0,0,0-.28.75c.07.2.2.27.19.31s-.19,0-.36-.23a.78.78,0,0,1-.11-.51.92.92,0,0,1,.35-.6,1.74,1.74,0,0,1,1.68-.12A4.09,4.09,0,0,1,342,147c1,1,1.38,2.49.86,3.41a1.3,1.3,0,0,1-.92.66C341.68,151.12,341.54,151,341.55,151Z" transform="translate(-235.78 -119.03)" style="fill:#ff9a6c"/><path d="M298.51,153.28c-1.26.34-1.38-4.68-.26-7.54,1.7-4.32,5.5-9.66,9.06-11.59,4.3-2.31,8.72-3.35,13.38-1.93a27.7,27.7,0,0,1,12.07,8A8.42,8.42,0,0,1,335,144c.38,1.79-.29,3.81,1.26,5.29a2.91,2.91,0,0,1,1,2c0,1.87-2,2.05-3.41,1.63-3-.9-5.44-3.14-7.73-5.3a20.36,20.36,0,0,1-4.34-5.11c-.57-1.08-1-2.25-1.58-3.3a4.21,4.21,0,0,0-2.8-2.17,5,5,0,0,0-.81,0,7.33,7.33,0,0,0-6.18,4.08c-1.87,3.76-5.26,10-7.46,10.24a10.77,10.77,0,0,1-4.48-.09Z" transform="translate(-235.78 -119.03)" style="fill:#263238"/><path d="M328.22,165.06c-.18.16.93,1.33.73,3.11s-1.56,2.85-1.41,3,.49,0,1-.53a4,4,0,0,0,1.24-2.46,3.5,3.5,0,0,0-.69-2.53C328.7,165.14,328.29,165,328.22,165.06Z" transform="translate(-235.78 -119.03)" style="fill:#263238"/><path d="M334.5,141.84c1-6.76.66-10.38-1.71-13.93l-38.58,38.52s5.77.51,9.07-1.64l-1.88-2.42s18.91-19.73,26.7-21.69l3.42-1Z" transform="translate(-235.78 -119.03)" style="fill:#455a64"/><path d="M326,138.3s10.21,9.43,16,18.45c6,9.36-1.72,20.21-1.72,20.21s4-13.28-3.42-21.54c-6.73-7.49-13.68-14.39-13.68-14.39Z" transform="translate(-235.78 -119.03)" style="fill:#455a64"/><path d="M315.92,119s1.69.09,1.64,2.26l-.07,2.65a35.69,35.69,0,0,1,7,.63s-7.15,2.6-10,7.08a.37.37,0,0,0,.5.51c3-1.83,10.84-6.56,13.16-6.49a6.06,6.06,0,0,1,3.37,1,9.26,9.26,0,0,1,3.65,8.41l-.35,3.92-6.22-.07a9.16,9.16,0,0,0-6.41,2.52c-4,3.75-12.05,10.14-13.75,11.83-1.43,1.43-11.15,12.64-13.7,13.05s-5.12,1-5-1.3.84-14,4-22.19a37.18,37.18,0,0,1,8.65-13.06s11.58-11,13.51-10.75" transform="translate(-235.78 -119.03)" style="fill:#ff725e"/><path d="M303.49,137.13a11.4,11.4,0,0,1,1.49-2.48,36.68,36.68,0,0,1,10.1-9.61,11.3,11.3,0,0,1,2.56-1.37,23.29,23.29,0,0,1-2.34,1.69,47.42,47.42,0,0,0-5.36,4.39,48.26,48.26,0,0,0-4.65,5.13A22.93,22.93,0,0,1,303.49,137.13Z" transform="translate(-235.78 -119.03)" style="fill:#263238"/><g style="opacity:0.30000000000000004"><path d="M312.48,135a1,1,0,0,0-.76-.51,3.57,3.57,0,0,0-1.26,0,3.33,3.33,0,0,0-2.26,2.26c-.34,1.13,1.28,1.73,2.11,1.4a4.36,4.36,0,0,0,1.89-1.82A1.47,1.47,0,0,0,312.48,135Z" transform="translate(-235.78 -119.03)"/></g><g style="opacity:0.30000000000000004"><path d="M304.45,142.43a1.46,1.46,0,0,0-.68.44,15.34,15.34,0,0,0-3.57,5.82,52.18,52.18,0,0,0-2.08,7,36.23,36.23,0,0,0,6.93-12.52.89.89,0,0,0,.06-.39A.57.57,0,0,0,304.45,142.43Z" transform="translate(-235.78 -119.03)"/></g><g style="opacity:0.30000000000000004"><path d="M296.21,142.49a1.33,1.33,0,0,0-.51.63,15.11,15.11,0,0,0-1.53,6.65,44.93,44.93,0,0,0,.51,6.85A33.61,33.61,0,0,0,297,143a.75.75,0,0,0-.07-.39A.55.55,0,0,0,296.21,142.49Z" transform="translate(-235.78 -119.03)"/></g><path d="M326.09,126a20.1,20.1,0,0,1-2.76,1.72c-1.73,1-4.15,2.35-6.83,3.81l-2,1.06a.61.61,0,0,1-.81-.24.55.55,0,0,1-.06-.45.53.53,0,0,1,.09-.2l.08-.11c.2-.28.41-.56.63-.82a14,14,0,0,1,2.62-2.42,12.54,12.54,0,0,1,2.07-1.19,2.32,2.32,0,0,1,.84-.28c0,.09-1.12.56-2.69,1.78a15.1,15.1,0,0,0-2.46,2.43c-.2.25-.4.52-.59.8s-.09.13-.08.2a.08.08,0,0,0,.12,0l1.95-1.07c2.68-1.46,5.13-2.75,6.91-3.67A18.8,18.8,0,0,1,326.09,126Z" transform="translate(-235.78 -119.03)" style="fill:#263238"/><path d="M404.41,213.78s-66.08,36.58-60,56.69,60.05,57.59,60.05,57.59l12.27-10.47s-21.1-27.88-27-36.86c-4.41-6.72-13-11.79-13-11.79s37.28-12.8,51.88-20,20.13-11.65,21.23-22.12-1.65-15.55-3.3-20.23-13.77-13.5-13.77-13.5Z" transform="translate(-235.78 -119.03)" style="fill:#ffbf9d"/><path d="M446.56,206.62c-1.65-4.69-13.77-13.5-13.77-13.5l-28.38,20.66s-31.05,17.09-48.66,34.51l22.68,20.33s35.86-12,50.46-19.19,20.57-13.45,21.68-23.92S448.21,211.3,446.56,206.62Z" transform="translate(-235.78 -119.03)" style="fill:#263238"/><path d="M448.65,230.34s0,.07,0,.22a4.86,4.86,0,0,1-.06.64,14.94,14.94,0,0,1-.53,2.42,19.49,19.49,0,0,1-4.71,7.75,21.58,21.58,0,0,1-5,3.79c-2,1.05-4.17,2.11-6.46,3.19-4.59,2.17-9.7,4.41-15.11,6.63-10.83,4.45-20.81,8-28.1,10.41-3.64,1.2-6.61,2.1-8.67,2.7l-2.38.66a5.37,5.37,0,0,1-.84.19,5.35,5.35,0,0,1,.81-.29l2.35-.76c2-.66,5-1.61,8.61-2.86,7.25-2.48,17.2-6.1,28-10.55,5.4-2.22,10.51-4.44,15.1-6.58,2.29-1.07,4.46-2.11,6.46-3.13a21.51,21.51,0,0,0,5-3.67,19.82,19.82,0,0,0,4.78-7.54,16.61,16.61,0,0,0,.62-2.38C448.59,230.63,448.63,230.34,448.65,230.34Z" transform="translate(-235.78 -119.03)" style="fill:#455a64"/><polygon points="166.32 207.67 149.46 194.93 166.26 178.93 178.94 193.84 180.18 202.56 172.43 209.02 166.32 207.67" style="fill:#263238"/><path d="M408.73,356.45s5.77-4.91,8.77-10.43,6.22-14.45,7.45-17.71,7.64-10.88,5.13-13.36-17-3.74-17-3.74,2.65,3,.65,5.75-7.17,7.4-7.17,7.4-5.35-.05-6.58,1.51,3.82,4.09,3.82,4.09,3,7.74,2.39,11.31.18,4.23-1.86,7.51a10.3,10.3,0,0,0-1.87,5.61s1.67,3.22,3.12,3.08A10.43,10.43,0,0,0,408.73,356.45Z" transform="translate(-235.78 -119.03)" style="fill:#455a64"/><path d="M405.48,357.48a7.75,7.75,0,0,0,3.29-1s5.77-4.91,8.77-10.43,6.22-14.45,7.44-17.71,7.65-10.88,5.14-13.36a5.75,5.75,0,0,0-2.52-1.47s-3.24,9.85-6,13.85-5.54,14.48-8.58,19a67.22,67.22,0,0,1-7.52,9l-1.8,1C404.28,356.94,404.59,357.47,405.48,357.48Z" transform="translate(-235.78 -119.03)" style="fill:#e0e0e0"/><path d="M406.05,339.72a13,13,0,0,0,1.86.43,15,15,0,0,0,1.91-.15,2.64,2.64,0,0,1-1.93.47A2.58,2.58,0,0,1,406.05,339.72Z" transform="translate(-235.78 -119.03)" style="fill:#fff"/><path d="M405.44,335.55a10.72,10.72,0,0,0,2.26.35,12,12,0,0,0,2.25-.41,3.3,3.3,0,0,1-2.24.73A3.24,3.24,0,0,1,405.44,335.55Z" transform="translate(-235.78 -119.03)" style="fill:#fff"/><path d="M404.44,332.22a17.47,17.47,0,0,1,1.9-.26,17.67,17.67,0,0,1,1.87-.38,3.58,3.58,0,0,1-1.82.7A3.65,3.65,0,0,1,404.44,332.22Z" transform="translate(-235.78 -119.03)" style="fill:#fff"/><path d="M420.9,320.37a5,5,0,0,1-.5,1.22c-.35.73-.87,1.73-1.51,2.79s-1.26,2-1.74,2.66a5,5,0,0,1-.84,1c-.07-.06,1.05-1.72,2.31-3.84S420.81,320.33,420.9,320.37Z" transform="translate(-235.78 -119.03)" style="fill:#fff"/><path d="M366.2,265.48a12.29,12.29,0,0,1,6,.86,15.74,15.74,0,0,1,3.86,2,7.39,7.39,0,0,0,1,.73c.26.11.43.07.44.11s-.16.15-.5.09a4.8,4.8,0,0,1-1.19-.61,23.07,23.07,0,0,0-3.83-1.83A39.23,39.23,0,0,0,366.2,265.48Z" transform="translate(-235.78 -119.03)" style="fill:#ff9a6c"/><path d="M339.07,187.68c0,.51,17.48,24.33,21.23,27.86s28,8.52,28,8.52,14-7.6,17.07-9.8,19-6.71,28.95-7.6c7.56-.68,12.47-.68,12.47-.68s-2.36-9-24.65-22-42.81-21.41-57.6-21.41H349.77Z" transform="translate(-235.78 -119.03)" style="fill:#ff725e"/><path d="M336.3,218.15l23.41,6.91s8.36-27.85,8.75-33.44-2.19-17-11.17-17.56-16,7-17.78,18.16S336.3,218.15,336.3,218.15Z" transform="translate(-235.78 -119.03)" style="fill:#ebebeb"/><polygon points="100.86 95.79 124.86 102.89 126.15 98.45 101.34 91.85 100.86 95.79" style="fill:#ff725e"/><path d="M336.3,218.15s0-.12,0-.35.05-.6.08-1c.08-.93.21-2.26.36-4,.34-3.42.87-8.38,1.67-14.49.22-1.52.44-3.12.67-4.78a40.39,40.39,0,0,1,1.05-5.16,23.28,23.28,0,0,1,5.64-10.08,15.49,15.49,0,0,1,5.23-3.53,14.42,14.42,0,0,1,6.51-1,10,10,0,0,1,6.17,2.84,15.45,15.45,0,0,1,3.68,6,24.56,24.56,0,0,1,1.32,6.1,18.64,18.64,0,0,1,0,3.08c-.11,1-.31,2-.5,3-.83,3.89-1.83,7.6-2.79,11.16-1.94,7.11-3.84,13.57-5.52,19.15l-.06.2-.19-.06-17.12-5.16-4.64-1.43-1.2-.38a2,2,0,0,1-.39-.14l.44.11,1.25.34,4.7,1.33,17.07,4.93-.25.14c1.64-5.58,3.51-12.05,5.43-19.16.95-3.56,1.93-7.27,2.75-11.14a20.64,20.64,0,0,0-.83-11.88,14.81,14.81,0,0,0-3.54-5.77,9.52,9.52,0,0,0-5.84-2.7,13.84,13.84,0,0,0-6.28.91,14.93,14.93,0,0,0-5.07,3.4,22.93,22.93,0,0,0-5.56,9.85,39,39,0,0,0-1.07,5.1c-.24,1.66-.48,3.25-.7,4.77-.86,6.1-1.43,11.05-1.84,14.47-.2,1.68-.35,3-.46,3.93-.06.43-.1.77-.13,1A1.26,1.26,0,0,1,336.3,218.15Z" transform="translate(-235.78 -119.03)" style="fill:#263238"/><rect x="344" y="193.61" width="17.93" height="5.31" transform="translate(-171.24 -205.47) rotate(15.35)" style="fill:#455a64"/><polyline points="134.73 100.67 141.6 86.18 147.03 88.9 140.19 102.16" style="fill:#455a64"/></g></svg>