<svg xmlns="http://www.w3.org/2000/svg" xmlns:xlink="http://www.w3.org/1999/xlink" viewBox="0 0 981.77 581.17"><defs><clipPath id="clip-path" transform="translate(89.06 17.83)"><rect x="-196.55" width="1040" height="500" style="fill:none"/></clipPath><clipPath id="clip-path-2" transform="translate(89.06 17.83)"><path d="M499.29-16.1A224,224,0,0,0,438-10.47C386.84,1.87,346.62,33.87,325.91,78.7,308.86,115.61,304.8,157,297.7,196.59c-6.78,37.8-15.73,78.62-44.15,106.35-22.9,22.35-53.29,32.45-83.82,39.67C107.52,357.32,32.4,376.1,10.48,445.17c-10.85,34.16-5.16,86.57,31,118h842v-571Z" style="fill:none"/></clipPath></defs><title>ocean</title><g style="isolation:isolate"><g id="Background"><rect y="17.83" width="932.51" height="500" style="fill:#341a47"/></g><g id="Objects"><g style="clip-path:url(#clip-path)"><g style="clip-path:url(#clip-path-2)"><path d="M499.54-15.94a224.37,224.37,0,0,0-61.31,5.64C387.09,2,346.87,34,326.16,78.87,292.81,151.07,307.8,255,250.07,307.52c-25.47,23.15-62.41,33.08-100,39.33s-77,9.33-111.78,20.72-66.7,43.61-77.54,77.77-5.16,86.57,31,118h892v-571Z" transform="translate(89.06 17.83)" style="fill:#b8d1ff"/><path d="M886.86,276.52l-41.59-59.68c-12-15.66-38.78-19-57.72-12.73s-34.52,19.4-50.62,31-34.34,22.35-54.32,22.43c-21,.08-39.91-11.49-60-17.48-37.07-11.08-79.75-1.77-108.56,23.69l-14.81,12.74Z" transform="translate(89.06 17.83)" style="fill:#91b7ff;opacity:0.6000000000000001"/><path d="M217.48,276.52l43.46-81c12.58-21.27,40.51-25.79,60.3-17.29s36.08,26.34,52.89,42.13,35.88,30.34,56.76,30.45c21.92.11,41.7-15.6,62.67-23.74,38.74-15,83.33-2.39,113.44,32.17l15.48,17.3Z" transform="translate(89.06 17.83)" style="fill:#70a2ff"/><rect x="21.53" y="294.13" width="918.32" height="137.86" style="fill:#497fe3"/><rect x="22.53" y="383.87" width="917.32" height="137.86" style="fill:#fee191"/><path d="M168.63,387.83c0,1.25-5.39,2.27-12,2.27s-12-1-12-2.27,5.39-2.28,12-2.28S168.63,386.57,168.63,387.83Z" transform="translate(89.06 17.83)" style="fill:#ffd67e;opacity:0.72;mix-blend-mode:multiply"/><path d="M783.3,415.83c0,1.25-5.39,2.27-12,2.27s-12-1-12-2.27,5.38-2.28,12-2.28S783.3,414.57,783.3,415.83Z" transform="translate(89.06 17.83)" style="fill:#ffd67e;opacity:0.72;mix-blend-mode:multiply"/><ellipse cx="397.18" cy="394.6" rx="12.03" ry="2.28" style="fill:#ffd67e;opacity:0.72;mix-blend-mode:multiply"/><path d="M232,378.4c0,1.25-5.39,2.27-12,2.27s-12-1-12-2.27,5.39-2.28,12-2.28S232,377.14,232,378.4Z" transform="translate(89.06 17.83)" style="fill:#ffd67e;opacity:0.72;mix-blend-mode:multiply"/><path d="M142.17,415.28c0,1.25-5.38,2.27-12,2.27s-12-1-12-2.27,5.39-2.28,12-2.28S142.17,414,142.17,415.28Z" transform="translate(89.06 17.83)" style="fill:#ffd67e;opacity:0.72;mix-blend-mode:multiply"/><path d="M278.7,399.73c0,1.26-5.38,2.28-12,2.28s-12-1-12-2.28,5.39-2.27,12-2.27S278.7,398.47,278.7,399.73Z" transform="translate(89.06 17.83)" style="fill:#ffd67e;opacity:0.72;mix-blend-mode:multiply"/><path d="M796.06,386.42c0,1.26-5.38,2.27-12,2.27s-12-1-12-2.27,5.39-2.28,12-2.28S796.06,385.16,796.06,386.42Z" transform="translate(89.06 17.83)" style="fill:#ffd67e;opacity:0.72;mix-blend-mode:multiply"/><ellipse cx="204.42" cy="394.6" rx="7.86" ry="2.28" style="fill:#ffd67e;opacity:0.72;mix-blend-mode:multiply"/><path d="M400,383c0,1.26-3.52,2.28-7.86,2.28s-7.86-1-7.86-2.28,3.52-2.28,7.86-2.28S400,381.69,400,383Z" transform="translate(89.06 17.83)" style="fill:#ffd67e;opacity:0.72;mix-blend-mode:multiply"/><path d="M650.56,383.82c0,1.25-3.52,2.27-7.86,2.27s-7.86-1-7.86-2.27,3.52-2.28,7.86-2.28S650.56,382.56,650.56,383.82Z" transform="translate(89.06 17.83)" style="fill:#ffd67e;opacity:0.72;mix-blend-mode:multiply"/><path d="M832.21,378.18c0,1.26-3.52,2.28-7.86,2.28s-7.86-1-7.86-2.28,3.52-2.27,7.86-2.27S832.21,376.92,832.21,378.18Z" transform="translate(89.06 17.83)" style="fill:#ffd67e;opacity:0.72;mix-blend-mode:multiply"/><rect x="19.53" y="464.5" width="923.79" height="61.14" style="fill:#a290b0"/><path d="M-71.52,336.17c92.49,0,92.49,14,185,14s92.5-14,185-14,92.5,14,185,14,92.5-14,185-14,92.5,14,185,14v16h-924Z" transform="translate(89.06 17.83)" style="fill:#fff"/><g style="opacity:0.67;mix-blend-mode:overlay"><path d="M677.61,300.39A113,113,0,0,1,689,299.24c3.8-.24,7.6-.3,11.4-.33s7.6.08,11.4.32a110.06,110.06,0,0,1,11.4,1.16.35.35,0,0,1,.24.39.33.33,0,0,1-.24.3,110.06,110.06,0,0,1-11.4,1.16c-3.8.23-7.6.3-11.4.32s-7.6-.09-11.4-.33a113,113,0,0,1-11.39-1.15.34.34,0,0,1-.24-.39A.3.3,0,0,1,677.61,300.39Z" transform="translate(89.06 17.83)" style="fill:#fff;opacity:0.67"/></g><g style="opacity:0.67;mix-blend-mode:overlay"><path d="M290.9,291.67c45.89-1.17,91.77-1.79,137.66-2.2,22.94-.27,45.88-.33,68.83-.48l68.82-.16L635,289c22.94.16,45.89.21,68.83.47,45.88.42,91.77,1,137.65,2.22,1,0,1.68.34,1.62.7s-.76.59-1.62.62c-45.88,1.18-91.77,1.8-137.65,2.22-22.94.26-45.89.31-68.83.47l-68.83.15-68.82-.16c-22.95-.15-45.89-.21-68.83-.48-45.89-.41-91.77-1-137.66-2.2-1,0-1.68-.34-1.61-.7S290.05,291.69,290.9,291.67Z" transform="translate(89.06 17.83)" style="fill:#fff"/></g><g style="opacity:0.67;mix-blend-mode:overlay"><path d="M469.16,303.15c16.17-.91,32.35-1.38,48.53-1.7,8.08-.2,16.17-.25,24.26-.37l24.26-.12,24.27.11c8.08.13,16.17.16,24.26.37,16.18.32,32.35.79,48.53,1.71.44,0,.76.27.72.55s-.34.44-.72.46c-16.18.91-32.35,1.39-48.53,1.71-8.09.2-16.18.24-24.26.36l-24.27.11L542,306.22c-8.09-.12-16.18-.16-24.26-.36-16.18-.33-32.36-.8-48.53-1.7-.44,0-.77-.27-.73-.55S468.78,303.17,469.16,303.15Z" transform="translate(89.06 17.83)" style="fill:#fff"/></g><g style="opacity:0.5700000000000001;mix-blend-mode:overlay"><path d="M531.8,313.18c7.45-.62,14.91-.94,22.37-1.16s14.91-.3,22.37-.33,14.91.09,22.37.32,14.91.55,22.37,1.17c.3,0,.51.19.47.38s-.23.28-.47.3c-7.46.62-14.91.94-22.37,1.16s-14.92.3-22.37.33-14.92-.1-22.37-.33-14.92-.54-22.37-1.16c-.3,0-.51-.2-.47-.39S531.56,313.2,531.8,313.18Z" transform="translate(89.06 17.83)" style="fill:#fff"/></g><g style="opacity:0.5700000000000001;mix-blend-mode:overlay"><path d="M459.94,313.18c4.46-.62,8.91-.94,13.36-1.16s8.91-.3,13.36-.33,8.9.09,13.36.32,8.9.55,13.35,1.17a.33.33,0,0,1,.28.38.33.33,0,0,1-.28.3c-4.45.62-8.9.94-13.35,1.16s-8.91.3-13.36.33-8.91-.1-13.36-.33-8.9-.54-13.36-1.16a.35.35,0,0,1-.28-.39A.33.33,0,0,1,459.94,313.18Z" transform="translate(89.06 17.83)" style="fill:#fff"/></g><g style="opacity:0.5700000000000001;mix-blend-mode:overlay"><path d="M368.88,313.18c4.45-.62,8.9-.94,13.35-1.16s8.91-.3,13.36-.33,8.91.09,13.36.32,8.9.55,13.36,1.17a.35.35,0,0,1,0,.68c-4.46.62-8.91.94-13.36,1.16s-8.91.3-13.36.33-8.9-.1-13.36-.33-8.9-.54-13.35-1.16a.34.34,0,0,1-.28-.39A.32.32,0,0,1,368.88,313.18Z" transform="translate(89.06 17.83)" style="fill:#fff"/></g><g style="opacity:0.5700000000000001;mix-blend-mode:overlay"><path d="M634.76,313.18c4.46-.62,8.91-.94,13.36-1.16s8.91-.3,13.36-.33,8.9.09,13.36.32,8.9.55,13.35,1.17a.33.33,0,0,1,.28.38.33.33,0,0,1-.28.3c-4.45.62-8.9.94-13.35,1.16s-8.91.3-13.36.33-8.91-.1-13.36-.33-8.9-.54-13.36-1.16a.35.35,0,0,1-.28-.39A.33.33,0,0,1,634.76,313.18Z" transform="translate(89.06 17.83)" style="fill:#fff"/></g><g style="opacity:0.42;mix-blend-mode:overlay"><path d="M556.86,323.49a112.85,112.85,0,0,1,11.4-1.15c3.8-.24,7.6-.3,11.4-.33s7.6.09,11.39.32a110.06,110.06,0,0,1,11.4,1.16.34.34,0,0,1,.24.39.31.31,0,0,1-.24.3,110.06,110.06,0,0,1-11.4,1.16c-3.79.24-7.59.3-11.39.32s-7.6-.09-11.4-.33a112.85,112.85,0,0,1-11.4-1.15.35.35,0,0,1-.24-.39A.33.33,0,0,1,556.86,323.49Z" transform="translate(89.06 17.83)" style="fill:#fff"/></g><g style="opacity:0.67;mix-blend-mode:overlay"><path d="M400.15,304.06a112.85,112.85,0,0,1,11.4-1.15c3.8-.24,7.6-.3,11.4-.33s7.6.08,11.4.32a110.06,110.06,0,0,1,11.4,1.16.34.34,0,0,1,.23.39.31.31,0,0,1-.23.3,110.06,110.06,0,0,1-11.4,1.16c-3.8.23-7.6.3-11.4.32s-7.6-.09-11.4-.33a112.85,112.85,0,0,1-11.4-1.15.35.35,0,0,1-.24-.39A.33.33,0,0,1,400.15,304.06Z" transform="translate(89.06 17.83)" style="fill:#fff;opacity:0.67"/></g><g style="opacity:0.67;mix-blend-mode:overlay"><path d="M319,304.06a112.85,112.85,0,0,1,11.4-1.15c3.8-.24,7.6-.3,11.4-.33s7.6.08,11.4.32a109.59,109.59,0,0,1,11.39,1.16.34.34,0,0,1,.24.39.3.3,0,0,1-.24.3,109.59,109.59,0,0,1-11.39,1.16c-3.8.23-7.6.3-11.4.32s-7.6-.09-11.4-.33a112.85,112.85,0,0,1-11.4-1.15.35.35,0,0,1-.24-.39A.33.33,0,0,1,319,304.06Z" transform="translate(89.06 17.83)" style="fill:#fff;opacity:0.67"/></g><g style="opacity:0.67;mix-blend-mode:overlay"><path d="M238.72,304.06a112.85,112.85,0,0,1,11.4-1.15c3.8-.24,7.6-.3,11.4-.33s7.59.08,11.39.32a110.06,110.06,0,0,1,11.4,1.16.35.35,0,0,1,.24.39.33.33,0,0,1-.24.3,110.06,110.06,0,0,1-11.4,1.16c-3.8.23-7.6.3-11.39.32s-7.6-.09-11.4-.33a112.85,112.85,0,0,1-11.4-1.15.35.35,0,0,1-.24-.39A.33.33,0,0,1,238.72,304.06Z" transform="translate(89.06 17.83)" style="fill:#fff;opacity:0.67"/></g><polygon points="388.57 74.77 974.53 110.39 974.53 0 388.57 0 388.57 74.77" style="fill:#fff;opacity:0.16"/><polygon points="388.57 134.11 974.53 150.76 974.53 125.05 388.57 99.74 388.57 134.11" style="fill:#fff;opacity:0.16"/><polygon points="388.57 169.82 974.53 179 974.53 169.46 388.57 162.06 388.57 169.82" style="fill:#fff;opacity:0.16"/></g><path d="M884.87,325.16v-.08c-8.22,6.68-16,15.86-19.28,26.84-2.21,7.43-1.59,18.13,4.36,22,.17.11.36.21.55.31a68.57,68.57,0,0,1-4.25,9.66l-.8-1.1-5.11-7.07-1.27-1.77c-.43-.59-.85-1.19-1.3-1.76l-2.68-3.44-5.36-6.89-1.35-1.62a64.34,64.34,0,0,0,2.63-10.9,9.14,9.14,0,0,0,1.94-.07c7.93-1.12,11.14-11.37,10.91-19.28-.3-10.41-4.75-20.38-10.25-28.4v-.07c-6.37,7.52-11.91,17.26-13,27.87-.74,7.18,1.67,16.86,7.78,19.37.18.07.37.12.55.18a61.59,61.59,0,0,1-2.16,9.38l-2.63-3.16-2.8-3.35-2.9-3.26-2.9-3.26-1.45-1.63-.72-.81-.75-.79-6-6.34-.31-.33a62.46,62.46,0,0,0,1.53-10.79,9.1,9.1,0,0,0,1.82-.24c7.4-1.81,9.47-11.8,8.51-19.26-1.26-9.81-6.4-18.82-12.35-25.88v-.07c-5.32,7.71-9.64,17.43-9.68,27.57,0,6.85,3.16,15.77,9.17,17.58.17,0,.35.08.53.12a59,59,0,0,1-1.2,9.26l-1.07-1.07-3.1-3.07L819,328c-.52-.51-1-1-1.56-1.52l-3.18-3-3.18-3-3.26-2.9-3.26-2.9-2.4-2a58.77,58.77,0,0,0-.45-10.19,8.53,8.53,0,0,0,1.67-.54c6.61-3,6.83-12.7,4.64-19.52-2.89-9-9.27-16.52-16.06-22.11l0-.06c-3.64,8.14-6,18-4.29,27.51,1.16,6.42,5.7,14.23,11.64,14.88l.52,0a56.73,56.73,0,0,1,.5,8.45c-.8-.68-1.61-1.37-2.43-2l-3.41-2.72c-1.12-.93-2.29-1.8-3.44-2.68s-2.31-1.77-3.5-2.62-2.35-1.73-3.55-2.55c-1-.68-2-1.35-3-2l.21-.43c2.69-6.73-3.91-13.87-10.22-17.26-8.31-4.45-18.14-5.45-26.91-4.75l-.06,0c3,8.4,8.18,17.13,16,22.78,5.3,3.81,14,6.28,18.71,2.62a8.67,8.67,0,0,0,.93-.89c1,.64,1.93,1.3,2.88,2,1.17.83,2.32,1.69,3.48,2.55s2.29,1.74,3.42,2.63,2.28,1.76,3.39,2.69l3.34,2.74c1.12.9,2.2,1.87,3.29,2.8l3.28,2.83,3.2,2.9.17.16a56.92,56.92,0,0,1-9.47,1,4.59,4.59,0,0,0-.1-.51c-1.57-5.76-10-9-16.52-9.16-9.65-.21-19,3.67-26.49,8.55h.06c6.59,5.84,15,11,24.36,12.4,7.08,1.09,16.64-.64,18.54-7.64a9,9,0,0,0,.28-1.73,58.62,58.62,0,0,0,11-1.33l0-.1,1.37,1.24,3.12,3,3.12,3c.53.5,1,1,1.53,1.53l1.52,1.54,3,3.08c1,1,2,2.05,3,3.12l5.88,6.35.74.79.71.82,1.42,1.63.09.1a59.51,59.51,0,0,1-9.3,1c0-.18-.06-.36-.11-.54-1.63-6-10.41-9.39-17.21-9.54-10-.22-19.81,3.83-27.6,8.91h.07c6.86,6.08,15.66,11.41,25.37,12.91,7.37,1.15,17.34-.66,19.32-8a9.08,9.08,0,0,0,.29-1.81,62,62,0,0,0,10.67-1.22l1.25,1.43,2.84,3.26,2.73,3.35,5.46,6.71,5.24,6.88,2.61,3.45c.45.56.85,1.16,1.27,1.75l.48.67a63.34,63.34,0,0,1-9,.88c0-.19-.06-.38-.11-.57-1.74-6.36-11-9.95-18.22-10.1-10.65-.23-21,4.05-29.23,9.42h.07c7.27,6.44,16.59,12.08,26.87,13.67,7.8,1.21,18.36-.7,20.45-8.42a8.8,8.8,0,0,0,.3-1.91A64.77,64.77,0,0,0,858,378.64l4.42,6.26,1.25,1.77,1.18,1.81,2.36,3.62,4.72,7.24,3.3-2.09L870.38,390,868,386.36l-.26-.38a69.5,69.5,0,0,0,4.92-10.93,10.21,10.21,0,0,0,2.06.31c8.59.4,14-9.78,15.36-18.18C891.78,346.13,889.07,334.72,884.87,325.16Z" transform="translate(89.06 17.83)" style="fill:#4e276b"/><path d="M809.09,467.29c-10.88,1-31,4.27-36,13.13.93-1.95-4.17-13.13-4.17-13.13s-8.6,3.89-10.9,10.45c0,0,0,0-.07,0-.69-1.15-1.14-2.43-1.91-3.55a26.56,26.56,0,0,0-2.52-3.09,14.37,14.37,0,0,0-3.54-2.49l-4.77-3c-2.69,1.9-3.53,7.2-3.53,7.2a17.17,17.17,0,0,0-14.51-10.74l3.46,13.62C722,472,718.27,477,718.27,477l4.21,8.63a7.64,7.64,0,0,0-4.49-1.48l-6.5,9.16a11.22,11.22,0,0,0,.53-6.87c-6.22-.32-7.95,6.83-8.41,9.87l-.34,0-1.37-9.43c-5.8.52-8.43,9.77-8.43,9.77,2.18-8.22-2.77-17.31-2.77-17.31-6.87,4.36-5.07,16.38-5.07,16.38-2.8-12.84-10.56-14.67-10.56-14.67a37.6,37.6,0,0,0-3,13.22,27.23,27.23,0,0,0-9.17-6.71s-2.54,11.92,1.36,18.06H809.09Z" transform="translate(89.06 17.83)" style="fill:#341a47"/><path d="M809.19,467.28v38.39h20.63l.2-26.38s-5.23,1.5-9.14,7.67a12.65,12.65,0,0,0-1-7.2c5.71-1,11.39-2,15.12-3m-20.68,5.85a11.48,11.48,0,0,0-.46-1.79l4.2-.76A21.87,21.87,0,0,0,814.27,482.63Z" transform="translate(89.06 17.83)" style="fill:#341a47"/><path d="M838.93,475.16a11.13,11.13,0,0,1-4,1.62c6.26,2.24,11.18,4.35,9.69,6.22C851.15,480.44,838.29,481.09,838.93,475.16Z" transform="translate(89.06 17.83)" style="fill:#341a47"/><path d="M839.14,474.17a5.68,5.68,0,0,0-.21,1C839.29,474.84,839.38,474.51,839.14,474.17Z" transform="translate(89.06 17.83)" style="fill:#341a47"/><path d="M848,466.65c.19-.71.35-3.12.1-8.6-.31-5.27-1-13.61-3.88-21.3a39.13,39.13,0,0,0-16-20.15c-8.11-5.64-19.45-9.35-32.43-19.8-.23.85-.6,3.35-.68,9.18,0,5.6.25,14.54,2.8,22.71s7.32,15.75,15.75,20.7C821.93,454.77,833.88,457.62,848,466.65Z" transform="translate(89.06 17.83)" style="fill:#66338c"/><path d="M801.44,409.28c3.74,5.45,8.45,10.17,13.13,14.81s9.55,9.1,14,13.88a90.69,90.69,0,0,1,12,15.32,51.29,51.29,0,0,1,4.16,8.65c.26.75.55,1.5.76,2.26s.46,1.5.64,2.31l.6,2.39.29,1.2.15.6c0,.2.1.4.77.43l2.08-.55c.57-.37.53-.57.46-.76l-.17-.6L850,468l-.68-2.39c-.21-.78-.49-1.61-.76-2.42s-.59-1.61-.9-2.4a54.13,54.13,0,0,0-4.69-9,87.43,87.43,0,0,0-12.9-15.3c-4.76-4.63-9.78-8.92-14.7-13.29A111.25,111.25,0,0,1,801.44,409.28Z" transform="translate(89.06 17.83)" style="fill:#341a47"/><path d="M862.43,491.1c-.46-.65-2.36-2.43-7.12-6-4.61-3.36-12.08-8.51-20.52-11.46a43.69,43.69,0,0,0-28.12-.77c-10.41,2.73-21.5,9.42-39.36,12.82.55.77,2.37,2.78,7.19,6.86,4.66,3.85,12.32,9.78,20.93,13.31s18.31,4.85,28.38,1.38C834.16,504.18,845,496.4,862.43,491.1Z" transform="translate(89.06 17.83)" style="fill:#66338c"/><path d="M781.74,489.62c7.19.71,14.45.1,21.61-.53s14.33-1.52,21.47-1.89a102.42,102.42,0,0,1,21.25.74,57.16,57.16,0,0,1,10.15,2.56c.81.3,1.63.58,2.41.93s1.58.66,2.39,1.06l2.42,1.16,1.21.58.6.29c.19.12.4.2.9-.33l1-2.07c.09-.72-.11-.83-.32-.9l-.62-.27-1.23-.54-2.47-1.09c-.8-.37-1.69-.7-2.56-1s-1.75-.62-2.63-.92A60.39,60.39,0,0,0,846.51,485a98,98,0,0,0-21.86,0c-7.22.7-14.33,1.85-21.45,2.86A124.46,124.46,0,0,1,781.74,489.62Z" transform="translate(89.06 17.83)" style="fill:#341a47"/><path d="M854.16,477.54c-.23-.7-1.43-2.79-4.65-7.23-3.15-4.24-8.33-10.81-15-15.66a39.11,39.11,0,0,0-24.47-8c-9.87-.25-21.39,2.88-38,1.28.27.84,1.34,3.12,4.47,8,3.07,4.69,8.2,12,14.82,17.43s14.77,9.14,24.53,8.64C825.85,481.94,837.4,477.75,854.16,477.54Z" transform="translate(89.06 17.83)" style="fill:#8040b0"/><path d="M783.74,455.19c6.11,2.51,12.64,3.85,19.1,5.16s13,2.36,19.35,3.89a91,91,0,0,1,18.45,6.2,51.72,51.72,0,0,1,8.23,4.94c.63.49,1.28.95,1.87,1.47s1.21,1,1.81,1.58l1.81,1.68.91.83.45.42c.14.16.3.28.88-.06l1.43-1.61c.28-.61.14-.77,0-.88l-.47-.41-.93-.81L854.71,476c-.6-.54-1.29-1.07-2-1.6s-1.37-1-2.06-1.52a53.51,53.51,0,0,0-8.87-4.93,87.4,87.4,0,0,0-19.18-5.7c-6.52-1.25-13.08-2.08-19.59-3A110.26,110.26,0,0,1,783.74,455.19Z" transform="translate(89.06 17.83)" style="fill:#341a47"/><path d="M116.54,492.42s7.68-10.21,2.48-17c0,0-5.86,3.22-7.49,11.61,0,0,1-18.52-6.39-21.57-.27,1.65-5.63,9.4-7.84,5.69-.24-2.15,1.42-5.64,2.51-5.2-6-2.39-15.43,2.19-17.3,3a20.05,20.05,0,0,1,5.58-4.65,23.21,23.21,0,0,1,7-2.56,21.41,21.41,0,0,0-4.25-3,27.31,27.31,0,0,0-12.49-3.11l10.2-11S77,441,67.24,448.74c0,0-2.51-5.82-.73-11.23,0,0-10.83,1.73-18.13,8.71,0,0-.06,0-.06,0-.48-1.61-.89-3.25-1.33-4.87a26.75,26.75,0,0,0-3.48-8.2,18.62,18.62,0,0,0-3.39-3.67l-1-.82a11.45,11.45,0,0,0-1.28-.69S31,440.27,31,442.43c-3.87-4.86-5.29-8.84-7.29-14.43-3.75,2.92-7.12,11.53-7.34,14.92-.44-2.33-6.47-15-6.47-15a11.45,11.45,0,0,0-1.28.69l-1,.82a18.62,18.62,0,0,0-3.39,3.67,26.75,26.75,0,0,0-3.48,8.2c-.44,1.62-.85,3.26-1.32,4.87,0,0,0,.05-.07,0-7.3-7-18.13-8.71-18.13-8.71,1.78,5.41-.73,11.23-.73,11.23-9.76-7.72-21.34-4.11-21.34-4.11l10.2,11a27.31,27.31,0,0,0-12.49,3.11,21.71,21.71,0,0,0-4.25,3,23.12,23.12,0,0,1,7,2.56,20.05,20.05,0,0,1,5.58,4.65c-1.87-.79-11.34-5.37-17.3-3,1.09-.44,2.75,3.05,2.51,5.2-2.21,3.71-7.57-4-7.84-5.69C-64.73,468.5-63.76,487-63.76,487c-1.63-8.39-7.49-11.61-7.49-11.61-5.2,6.8,2.48,17,2.48,17-9.14-10.54-18.25-9-18.25-9,.26,8.6,3.79,15.44,6.69,18.59,3.25,3.11,6.52,5.91,9.72,8.42h189c3.2-2.51,6.47-5.31,9.72-8.42,2.9-3.15,6.43-10,6.69-18.59C134.79,483.41,125.68,481.88,116.54,492.42Z" transform="translate(89.06 17.83)" style="fill:#66338c"/><path d="M5.07,510.09l-.26-29.62a23.09,23.09,0,0,1,11.79,8.61,12.58,12.58,0,0,1,1.64-8.61,29.85,29.85,0,0,1,6.89,3.76A12.29,12.29,0,0,1,26.88,480a23.89,23.89,0,0,1,7.24-6.69l9.67,14A15.56,15.56,0,0,1,46.37,472c3,7.86,10.09,14.45,18.93,17.47a24.21,24.21,0,0,1-6.48-18l19.46,10.32c-1.2-2.19,5.38-14.73,5.38-14.73s11.1,4.36,14.07,11.72c0,0,.07,0,.09,0,.89-1.29,1.48-2.73,2.47-4a29.45,29.45,0,0,1,3.25-3.47,19,19,0,0,1,4.57-2.8l6.16-3.34c3.47,2.13,4.55,8.08,4.55,8.08,5.75-11.77,18.73-12.05,18.73-12.05l-4.46,15.28c11.18-4.16,15.94,1.48,15.94,1.48l-5.43,9.69a11,11,0,0,1,5.8-1.66l8.38,10.28a11,11,0,0,1-.68-7.7c8-.36,10.26,7.66,10.85,11.07l.44,0,1.77-10.58c7.49.58,10.88,11,10.88,11-2.81-9.23,3.57-19.44,3.57-19.44,8.87,4.9,6.55,18.39,6.55,18.39,3.62-14.41,13.63-16.46,13.63-16.46a37.55,37.55,0,0,1,3.8,14.83c2.15-2.19,5.63-4.89,11.84-7.52,0,0,3.27,13.37-1.75,20.27Z" transform="translate(89.06 17.83)" style="fill:#341a47"/><path d="M776.14,102.34v0a18,18,0,0,0-26.8-8.73l0,0h0a18,18,0,0,0-16.59-22.81h0l0,0a18,18,0,0,0,0-28.19l0,0h0A18,18,0,0,0,749.3,19.74h0l0,0A18,18,0,0,0,776.13,11v0l0,0A18,18,0,0,0,803,19.76l0,0h0a18,18,0,0,0,16.59,22.81h0l0,0a18,18,0,0,0,0,28.19l0,0h0A18,18,0,0,0,803,93.6h0l0,0a18,18,0,0,0-26.79,8.72Z" transform="translate(89.06 17.83)" style="fill:#e6f8ff"/><circle cx="865.2" cy="74.5" r="25.67" style="fill:#fff"/><path d="M756.46,122.6l-29.83-5.89a10.6,10.6,0,0,0-12.51-2.56,15.63,15.63,0,0,0-25.24-7.08,22,22,0,0,0-42.63-.56,15.62,15.62,0,0,0-24.55,7.64,10.6,10.6,0,0,0-12.59,2.65l-29.39,5.8h26.84a.09.09,0,0,1,0,.05H729.27a.09.09,0,0,1,0-.05Z" transform="translate(89.06 17.83)" style="fill:#fff"/><path d="M531.13,52.93,501.3,47.05a10.6,10.6,0,0,0-12.52-2.57,15.61,15.61,0,0,0-25.23-7.07,22,22,0,0,0-42.63-.57,15.62,15.62,0,0,0-24.55,7.64,10.6,10.6,0,0,0-12.59,2.65l-29.4,5.8h26.85a.43.43,0,0,1,0,0H503.93a.11.11,0,0,0,0,0Z" transform="translate(89.06 17.83)" style="fill:#fff"/><path d="M892.71,187.93l-20.91-4.12A7.45,7.45,0,0,0,863,182a10.94,10.94,0,0,0-17.69-5,15.45,15.45,0,0,0-29.89-.4A10.94,10.94,0,0,0,798.23,182a7.45,7.45,0,0,0-8.83,1.86l-20.61,4.06h18.82v0h86v0Z" transform="translate(89.06 17.83)" style="fill:#fff;opacity:0.53"/><path d="M398.94,160.12l-30.61-6a10.91,10.91,0,0,0-12.85-2.64,16,16,0,0,0-25.9-7.26,22.61,22.61,0,0,0-43.75-.58,16,16,0,0,0-25.2,7.84,10.91,10.91,0,0,0-12.92,2.72l-30.17,6h27.55a.43.43,0,0,0,0,0H371a.43.43,0,0,0,0,0Z" transform="translate(89.06 17.83)" style="fill:#fff"/><path d="M440.29,85.82a23.42,23.42,0,0,0-14.65,2,25.09,25.09,0,0,0-8.38,6.45,23.69,23.69,0,0,0-7.43-6.52A22,22,0,0,0,396,85a.66.66,0,0,0-.56.63.66.66,0,0,0,.64.66,19.57,19.57,0,0,1,11.77,4.41,18.28,18.28,0,0,1,6.45,9.9,2.84,2.84,0,0,0,5.46.24v0a19.79,19.79,0,0,1,7.65-9.92,21,21,0,0,1,12.72-3.78.66.66,0,0,0,.67-.52A.65.65,0,0,0,440.29,85.82Z" transform="translate(89.06 17.83)" style="fill:#542973"/><path d="M768.34,141.93a23.5,23.5,0,0,0-14.65,2,25,25,0,0,0-8.38,6.45,23.44,23.44,0,0,0-7.43-6.52A22,22,0,0,0,724,141.1a.65.65,0,0,0-.55.63.66.66,0,0,0,.64.66,19.51,19.51,0,0,1,11.77,4.41,18.32,18.32,0,0,1,6.45,9.89,2.83,2.83,0,0,0,5.45.24v0a19.81,19.81,0,0,1,7.65-9.91,21.06,21.06,0,0,1,12.72-3.79.65.65,0,0,0,.16-1.28Z" transform="translate(89.06 17.83)" style="fill:#542973"/><path d="M687.63,22.48a23.48,23.48,0,0,0-14.65,2,25.09,25.09,0,0,0-8.38,6.45,23.66,23.66,0,0,0-7.43-6.52,22,22,0,0,0-13.84-2.72.65.65,0,0,0,.09,1.29,19.53,19.53,0,0,1,11.77,4.41,18.4,18.4,0,0,1,6.45,9.9,2.83,2.83,0,0,0,5.45.23h0a19.76,19.76,0,0,1,7.66-9.92,21,21,0,0,1,12.72-3.78.65.65,0,0,0,.16-1.29Z" transform="translate(89.06 17.83)" style="fill:#542973"/></g></g></g></svg>